<svg width="20" height="22" viewBox="0 0 20 22" fill="none" xmlns="http://www.w3.org/2000/svg">
<path d="M10 13.113C9.68467 13.113 9.42033 13.0063 9.207 12.793C8.99367 12.5797 8.887 12.3153 8.887 12C8.887 11.6847 8.99367 11.4203 9.207 11.207C9.42033 10.9937 9.68467 10.887 10 10.887C10.3153 10.887 10.5797 10.9937 10.793 11.207C11.0063 11.4203 11.113 11.6847 11.113 12C11.113 12.3153 11.0063 12.5797 10.793 12.793C10.5797 13.0063 10.3153 13.113 10 13.113ZM6 13.113C5.68467 13.113 5.42033 13.0063 5.207 12.793C4.99367 12.5797 4.887 12.3153 4.887 12C4.887 11.6847 4.99367 11.4203 5.207 11.207C5.42033 10.9937 5.68467 10.887 6 10.887C6.31533 10.887 6.57967 10.9937 6.793 11.207C7.00633 11.4203 7.113 11.6847 7.113 12C7.113 12.3153 7.00633 12.5797 6.793 12.793C6.57967 13.0063 6.31533 13.113 6 13.113ZM14 13.113C13.6978 13.113 13.4368 13.0063 13.2168 12.793C12.9969 12.5797 12.887 12.3153 12.887 12C12.887 11.6847 12.9969 11.4203 13.2168 11.207C13.4368 10.9937 13.7002 10.887 14.007 10.887C14.314 10.887 14.5751 10.9937 14.7902 11.207C15.0054 11.4203 15.113 11.6847 15.113 12C15.113 12.3153 15.0063 12.5797 14.793 12.793C14.5797 13.0063 14.3153 13.113 14 13.113ZM10 17.113C9.68467 17.113 9.42033 17.0031 9.207 16.7833C8.99367 16.5633 8.887 16.2998 8.887 15.993C8.887 15.686 8.99367 15.4249 9.207 15.2098C9.42033 14.9946 9.68467 14.887 10 14.887C10.3153 14.887 10.5797 14.9937 10.793 15.207C11.0063 15.4203 11.113 15.6847 11.113 16C11.113 16.3022 11.0063 16.5633 10.793 16.7833C10.5797 17.0031 10.3153 17.113 10 17.113ZM6 17.113C5.68467 17.113 5.42033 17.0031 5.207 16.7833C4.99367 16.5633 4.887 16.2998 4.887 15.993C4.887 15.686 4.99367 15.4249 5.207 15.2098C5.42033 14.9946 5.68467 14.887 6 14.887C6.31533 14.887 6.57967 14.9937 6.793 15.207C7.00633 15.4203 7.113 15.6847 7.113 16C7.113 16.3022 7.00633 16.5633 6.793 16.7833C6.57967 17.0031 6.31533 17.113 6 17.113ZM14 17.113C13.6978 17.113 13.4368 17.0031 13.2168 16.7833C12.9969 16.5633 12.887 16.2998 12.887 15.993C12.887 15.686 12.9969 15.4249 13.2168 15.2098C13.4368 14.9946 13.7002 14.887 14.007 14.887C14.314 14.887 14.5751 14.9937 14.7902 15.207C15.0054 15.4203 15.113 15.6847 15.113 16C15.113 16.3022 15.0063 16.5633 14.793 16.7833C14.5797 17.0031 14.3153 17.113 14 17.113ZM3.1695 21.4805C2.43117 21.4805 1.80492 21.2234 1.29075 20.7092C0.776584 20.1951 0.519501 19.5688 0.519501 18.8305V5.1695C0.519501 4.43117 0.776584 3.80492 1.29075 3.29075C1.80492 2.77658 2.43117 2.5195 3.1695 2.5195H4V0.519501H6.325V2.5195H13.675V0.519501H16V2.5195H16.8305C17.5688 2.5195 18.1951 2.77658 18.7092 3.29075C19.2234 3.80492 19.4805 4.43117 19.4805 5.1695V18.8305C19.4805 19.5688 19.2234 20.1951 18.7092 20.7092C18.1951 21.2234 17.5688 21.4805 16.8305 21.4805H3.1695ZM3.1695 18.8305H16.8305V9H3.1695V18.8305Z" fill="#1C1B1F"/>
</svg>
