<svg width="22" height="18" viewBox="0 0 22 18" fill="none" xmlns="http://www.w3.org/2000/svg">
<path d="M0.519501 17.4805V13.8305H2.5195V3.1695C2.5195 2.43117 2.77658 1.80492 3.29075 1.29075C3.80492 0.776583 4.43117 0.519501 5.1695 0.519501H20.4805V3.1695H5.1695V13.8305H10.8305V17.4805H0.519501ZM14.1555 17.4805C13.7873 17.4805 13.4744 17.3517 13.2168 17.094C12.9593 16.8363 12.8305 16.5235 12.8305 16.1555V6.4945C12.8305 6.1265 12.9593 5.81367 13.2168 5.556C13.4744 5.29833 13.7873 5.1695 14.1555 5.1695H20.1555C20.5235 5.1695 20.8363 5.29833 21.094 5.556C21.3517 5.81367 21.4805 6.1265 21.4805 6.4945V16.1555C21.4805 16.5235 21.3517 16.8363 21.094 17.094C20.8363 17.3517 20.5235 17.4805 20.1555 17.4805H14.1555Z" fill="#1C1B1F"/>
</svg>
