<svg width="24" height="19" viewBox="0 0 24 19" fill="none" xmlns="http://www.w3.org/2000/svg">
<path d="M17.9598 10.4663L14.2403 6.7325L16.1175 4.8805L17.9598 6.70875L21.7858 2.89675L23.6523 4.774L17.9598 10.4663ZM8.91525 9.75975C7.67392 9.75975 6.61684 9.32334 5.744 8.4505C4.87117 7.57767 4.43475 6.52059 4.43475 5.27925C4.43475 4.03792 4.87117 2.98325 5.744 2.11525C6.61684 1.24709 7.67392 0.813004 8.91525 0.813004C10.1566 0.813004 11.2137 1.24709 12.0865 2.11525C12.9593 2.98325 13.3958 4.03792 13.3958 5.27925C13.3958 6.52059 12.9593 7.57767 12.0865 8.4505C11.2137 9.32334 10.1566 9.75975 8.91525 9.75975ZM0.434753 18.7208V15.412C0.434753 14.7605 0.60417 14.1596 0.943003 13.6093C1.28167 13.0589 1.73509 12.6399 2.30325 12.3523C3.36492 11.8261 4.44792 11.4292 5.55225 11.1615C6.65659 10.8937 7.77759 10.7598 8.91525 10.7598C10.0718 10.7598 11.2022 10.8913 12.3065 11.1543C13.4108 11.4174 14.4844 11.812 15.5273 12.338C16.0953 12.6257 16.5487 13.0423 16.8875 13.588C17.2263 14.1337 17.3958 14.7417 17.3958 15.412V18.7208H0.434753Z" fill="#1C1B1F"/>
</svg>
