<svg width="23" height="22" viewBox="0 0 23 22" fill="none" xmlns="http://www.w3.org/2000/svg">
<path d="M10.562 21.4523C9.16917 21.3958 7.86209 21.0838 6.64075 20.5163C5.41942 19.9489 4.35634 19.1964 3.4515 18.2587C2.54684 17.3211 1.83434 16.2304 1.314 14.9867C0.793836 13.7429 0.533752 12.414 0.533752 11C0.533752 9.55183 0.808003 8.19083 1.3565 6.917C1.905 5.64333 2.65284 4.53292 3.6 3.58575C4.54717 2.63875 5.65759 1.89092 6.93125 1.34225C8.20492 0.79375 9.56592 0.519501 11.0143 0.519501C13.5794 0.519501 15.8164 1.32633 17.7253 2.94C19.6341 4.55367 20.8238 6.57725 21.2945 9.01075H18.5945C18.2853 7.83225 17.7281 6.77875 16.9228 5.85025C16.1174 4.92192 15.129 4.22367 13.9575 3.7555V4.12725C13.9575 4.66558 13.7617 5.12642 13.37 5.50975C12.9783 5.89308 12.5144 6.08475 11.9783 6.08475H10.0283V8.03825C10.0283 8.31492 9.93242 8.54908 9.74075 8.74075C9.54909 8.93242 9.31492 9.02825 9.03825 9.02825H7.08475V10.9718H9V13.901H8.0565L3.38375 9.22825C3.33375 9.51892 3.28792 9.8095 3.24625 10.1C3.20459 10.3905 3.18375 10.6811 3.18375 10.9718C3.18375 13.0421 3.88917 14.8347 5.3 16.3495C6.71084 17.8643 8.46484 18.6819 10.562 18.8022V21.4523ZM20.1848 21.0653L16.9708 17.837C16.6301 18.0087 16.2715 18.1518 15.895 18.2663C15.5187 18.3808 15.1243 18.438 14.712 18.438C13.4055 18.438 12.2912 17.977 11.369 17.055C10.4468 16.1328 9.98575 15.0177 9.98575 13.7095C9.98575 12.4013 10.4468 11.2893 11.369 10.3735C12.2912 9.45783 13.4063 9 14.7145 9C16.0227 9 17.1346 9.45808 18.0503 10.3743C18.9661 11.2906 19.424 12.4032 19.424 13.712C19.424 14.1243 19.3668 14.5211 19.2523 14.9022C19.1378 15.2834 18.9946 15.6443 18.8228 15.9848L22.051 19.199L20.1848 21.0653ZM14.712 15.788C15.2893 15.788 15.7773 15.5873 16.176 15.186C16.5747 14.7847 16.774 14.2933 16.774 13.712C16.774 13.1347 16.5747 12.6467 16.176 12.248C15.7772 11.8493 15.2891 11.65 14.7118 11.65C14.1344 11.65 13.6441 11.8493 13.2408 12.248C12.8376 12.6467 12.636 13.1347 12.636 13.7122C12.636 14.2896 12.8367 14.7799 13.238 15.1832C13.6393 15.5864 14.1307 15.788 14.712 15.788Z" fill="#1C1B1F"/>
</svg>
